<?xml version="1.0" encoding="utf-8"?>
<!-- Generator: Adobe Illustrator 16.0.4, SVG Export Plug-In . SVG Version: 6.00 Build 0)  -->
<!DOCTYPE svg PUBLIC "-//W3C//DTD SVG 1.1//EN" "http://www.w3.org/Graphics/SVG/1.1/DTD/svg11.dtd">
<svg version="1.1" id="Layer_1" xmlns="http://www.w3.org/2000/svg" xmlns:xlink="http://www.w3.org/1999/xlink" x="0px" y="0px"
	 width="40px" height="40px" viewBox="0 0 40 40" enable-background="new 0 0 40 40" xml:space="preserve">
<g>
	<path fill="#B3B3B3" d="M40.071,35.903c0,2.262-1.835,4.097-4.098,4.097H4.168c-2.263,0-4.097-1.835-4.097-4.097V4.097
		C0.071,1.834,1.906,0,4.168,0h31.805c2.263,0,4.098,1.834,4.098,4.097V35.903z"/>
	<g>
		<path fill="#0071AA" d="M36.928,35.415h-9.541l-8.242-11.108h-3.62v11.108H7.753V5.122h13.102c1.791,0,3.33,0.102,4.619,0.305
			c1.287,0.204,2.494,0.645,3.621,1.323c1.139,0.678,2.045,1.556,2.715,2.634c0.672,1.079,1.008,2.432,1.008,4.059
			c0,2.238-0.519,4.062-1.557,5.474c-1.037,1.41-2.52,2.583-4.445,3.52L36.928,35.415z M24.741,14.399
			c0-0.76-0.155-1.411-0.468-1.953c-0.312-0.543-0.848-0.97-1.607-1.282c-0.529-0.217-1.146-0.349-1.851-0.396
			c-0.706-0.048-1.526-0.071-2.462-0.071h-2.828v8.158h2.401c1.248,0,2.292-0.061,3.133-0.184c0.842-0.122,1.547-0.399,2.116-0.834
			c0.542-0.42,0.939-0.885,1.19-1.394C24.615,15.935,24.741,15.253,24.741,14.399z"/>
	</g>
</g>
<g>
</g>
<g>
</g>
<g>
</g>
<g>
</g>
<g>
</g>
<g>
</g>
</svg>
